%TF.GenerationSoftware,KiCad,Pcbnew,(6.0.7)*%
%TF.CreationDate,2023-01-27T14:46:33-05:00*%
%TF.ProjectId,Blinky5.0,426c696e-6b79-4352-9e30-2e6b69636164,rev?*%
%TF.SameCoordinates,Original*%
%TF.FileFunction,Copper,L2,Bot*%
%TF.FilePolarity,Positive*%
%FSLAX46Y46*%
G04 Gerber Fmt 4.6, Leading zero omitted, Abs format (unit mm)*
G04 Created by KiCad (PCBNEW (6.0.7)) date 2023-01-27 14:46:33*
%MOMM*%
%LPD*%
G01*
G04 APERTURE LIST*
%TA.AperFunction,SMDPad,CuDef*%
%ADD10R,5.500000X5.500000*%
%TD*%
%TA.AperFunction,SMDPad,CuDef*%
%ADD11R,4.000000X4.000000*%
%TD*%
%TA.AperFunction,ViaPad*%
%ADD12C,0.800000*%
%TD*%
%TA.AperFunction,Conductor*%
%ADD13C,0.250000*%
%TD*%
G04 APERTURE END LIST*
D10*
%TO.P,BT1,1,+*%
%TO.N,/VDD*%
X132234000Y-99060000D03*
X157834000Y-99060000D03*
D11*
%TO.P,BT1,2,-*%
%TO.N,GND*%
X145034000Y-99060000D03*
%TD*%
D12*
%TO.N,GND*%
X142500000Y-95400000D03*
X138000000Y-93000000D03*
X138000000Y-110000000D03*
%TO.N,/VDD*%
X132300000Y-94400000D03*
X157900000Y-94400000D03*
%TO.N,/THR*%
X140300000Y-98600000D03*
X151300000Y-106400000D03*
%TD*%
D13*
%TO.N,/VDD*%
X132234000Y-94466000D02*
X132300000Y-94400000D01*
X132234000Y-99060000D02*
X132234000Y-94466000D01*
X157834000Y-99060000D02*
X157834000Y-94466000D01*
X157834000Y-94466000D02*
X157900000Y-94400000D01*
%TO.N,/THR*%
X140300000Y-104500000D02*
X140300000Y-98600000D01*
X142200000Y-106400000D02*
X140300000Y-104500000D01*
X151300000Y-106400000D02*
X142200000Y-106400000D01*
%TD*%
%TA.AperFunction,Conductor*%
%TO.N,GND*%
G36*
X160433621Y-83528502D02*
G01*
X160480114Y-83582158D01*
X160491500Y-83634500D01*
X160491500Y-95675500D01*
X160471498Y-95743621D01*
X160417842Y-95790114D01*
X160365500Y-95801500D01*
X158593500Y-95801500D01*
X158525379Y-95781498D01*
X158478886Y-95727842D01*
X158467500Y-95675500D01*
X158467500Y-95173431D01*
X158487502Y-95105310D01*
X158507920Y-95081287D01*
X158511253Y-95078866D01*
X158639040Y-94936944D01*
X158734527Y-94771556D01*
X158793542Y-94589928D01*
X158813504Y-94400000D01*
X158793542Y-94210072D01*
X158734527Y-94028444D01*
X158639040Y-93863056D01*
X158511253Y-93721134D01*
X158356752Y-93608882D01*
X158350724Y-93606198D01*
X158350722Y-93606197D01*
X158188319Y-93533891D01*
X158188318Y-93533891D01*
X158182288Y-93531206D01*
X158088887Y-93511353D01*
X158001944Y-93492872D01*
X158001939Y-93492872D01*
X157995487Y-93491500D01*
X157804513Y-93491500D01*
X157798061Y-93492872D01*
X157798056Y-93492872D01*
X157711113Y-93511353D01*
X157617712Y-93531206D01*
X157611682Y-93533891D01*
X157611681Y-93533891D01*
X157449278Y-93606197D01*
X157449276Y-93606198D01*
X157443248Y-93608882D01*
X157288747Y-93721134D01*
X157160960Y-93863056D01*
X157065473Y-94028444D01*
X157006458Y-94210072D01*
X156986496Y-94400000D01*
X157006458Y-94589928D01*
X157065473Y-94771556D01*
X157160960Y-94936944D01*
X157165379Y-94941852D01*
X157165380Y-94941853D01*
X157168137Y-94944915D01*
X157169173Y-94947074D01*
X157169261Y-94947195D01*
X157169239Y-94947211D01*
X157198854Y-95008923D01*
X157200500Y-95029225D01*
X157200500Y-95675500D01*
X157180498Y-95743621D01*
X157126842Y-95790114D01*
X157074500Y-95801500D01*
X155035866Y-95801500D01*
X154973684Y-95808255D01*
X154837295Y-95859385D01*
X154720739Y-95946739D01*
X154633385Y-96063295D01*
X154582255Y-96199684D01*
X154575500Y-96261866D01*
X154575500Y-101858134D01*
X154582255Y-101920316D01*
X154633385Y-102056705D01*
X154720739Y-102173261D01*
X154837295Y-102260615D01*
X154973684Y-102311745D01*
X155035866Y-102318500D01*
X160365500Y-102318500D01*
X160433621Y-102338502D01*
X160480114Y-102392158D01*
X160491500Y-102444500D01*
X160491500Y-113365500D01*
X160471498Y-113433621D01*
X160417842Y-113480114D01*
X160365500Y-113491500D01*
X129634500Y-113491500D01*
X129566379Y-113471498D01*
X129519886Y-113417842D01*
X129508500Y-113365500D01*
X129508500Y-102444500D01*
X129528502Y-102376379D01*
X129582158Y-102329886D01*
X129634500Y-102318500D01*
X135032134Y-102318500D01*
X135094316Y-102311745D01*
X135230705Y-102260615D01*
X135347261Y-102173261D01*
X135434615Y-102056705D01*
X135485745Y-101920316D01*
X135492500Y-101858134D01*
X135492500Y-98600000D01*
X139386496Y-98600000D01*
X139406458Y-98789928D01*
X139465473Y-98971556D01*
X139560960Y-99136944D01*
X139634137Y-99218215D01*
X139664853Y-99282221D01*
X139666500Y-99302524D01*
X139666500Y-104421233D01*
X139665973Y-104432416D01*
X139664298Y-104439909D01*
X139664547Y-104447835D01*
X139664547Y-104447836D01*
X139666438Y-104507986D01*
X139666500Y-104511945D01*
X139666500Y-104539856D01*
X139666997Y-104543790D01*
X139666997Y-104543791D01*
X139667005Y-104543856D01*
X139667938Y-104555693D01*
X139669327Y-104599889D01*
X139674978Y-104619339D01*
X139678987Y-104638700D01*
X139681526Y-104658797D01*
X139684445Y-104666168D01*
X139684445Y-104666170D01*
X139697804Y-104699912D01*
X139701649Y-104711142D01*
X139713982Y-104753593D01*
X139718015Y-104760412D01*
X139718017Y-104760417D01*
X139724293Y-104771028D01*
X139732988Y-104788776D01*
X139740448Y-104807617D01*
X139745110Y-104814033D01*
X139745110Y-104814034D01*
X139766436Y-104843387D01*
X139772952Y-104853307D01*
X139795458Y-104891362D01*
X139809779Y-104905683D01*
X139822619Y-104920716D01*
X139834528Y-104937107D01*
X139840634Y-104942158D01*
X139868605Y-104965298D01*
X139877384Y-104973288D01*
X141696348Y-106792253D01*
X141703888Y-106800539D01*
X141708000Y-106807018D01*
X141713777Y-106812443D01*
X141757651Y-106853643D01*
X141760493Y-106856398D01*
X141780230Y-106876135D01*
X141783427Y-106878615D01*
X141792447Y-106886318D01*
X141824679Y-106916586D01*
X141831625Y-106920405D01*
X141831628Y-106920407D01*
X141842434Y-106926348D01*
X141858953Y-106937199D01*
X141874959Y-106949614D01*
X141882228Y-106952759D01*
X141882232Y-106952762D01*
X141915537Y-106967174D01*
X141926187Y-106972391D01*
X141964940Y-106993695D01*
X141972615Y-106995666D01*
X141972616Y-106995666D01*
X141984562Y-106998733D01*
X142003267Y-107005137D01*
X142021855Y-107013181D01*
X142029678Y-107014420D01*
X142029688Y-107014423D01*
X142065524Y-107020099D01*
X142077144Y-107022505D01*
X142112289Y-107031528D01*
X142119970Y-107033500D01*
X142140224Y-107033500D01*
X142159934Y-107035051D01*
X142179943Y-107038220D01*
X142187835Y-107037474D01*
X142223961Y-107034059D01*
X142235819Y-107033500D01*
X150591800Y-107033500D01*
X150659921Y-107053502D01*
X150679147Y-107069843D01*
X150679420Y-107069540D01*
X150684332Y-107073963D01*
X150688747Y-107078866D01*
X150843248Y-107191118D01*
X150849276Y-107193802D01*
X150849278Y-107193803D01*
X151011681Y-107266109D01*
X151017712Y-107268794D01*
X151111113Y-107288647D01*
X151198056Y-107307128D01*
X151198061Y-107307128D01*
X151204513Y-107308500D01*
X151395487Y-107308500D01*
X151401939Y-107307128D01*
X151401944Y-107307128D01*
X151488887Y-107288647D01*
X151582288Y-107268794D01*
X151588319Y-107266109D01*
X151750722Y-107193803D01*
X151750724Y-107193802D01*
X151756752Y-107191118D01*
X151911253Y-107078866D01*
X151947851Y-107038220D01*
X152034621Y-106941852D01*
X152034622Y-106941851D01*
X152039040Y-106936944D01*
X152134527Y-106771556D01*
X152193542Y-106589928D01*
X152213504Y-106400000D01*
X152193542Y-106210072D01*
X152134527Y-106028444D01*
X152039040Y-105863056D01*
X151911253Y-105721134D01*
X151756752Y-105608882D01*
X151750724Y-105606198D01*
X151750722Y-105606197D01*
X151588319Y-105533891D01*
X151588318Y-105533891D01*
X151582288Y-105531206D01*
X151488887Y-105511353D01*
X151401944Y-105492872D01*
X151401939Y-105492872D01*
X151395487Y-105491500D01*
X151204513Y-105491500D01*
X151198061Y-105492872D01*
X151198056Y-105492872D01*
X151111113Y-105511353D01*
X151017712Y-105531206D01*
X151011682Y-105533891D01*
X151011681Y-105533891D01*
X150849278Y-105606197D01*
X150849276Y-105606198D01*
X150843248Y-105608882D01*
X150688747Y-105721134D01*
X150684332Y-105726037D01*
X150679420Y-105730460D01*
X150678295Y-105729211D01*
X150624986Y-105762051D01*
X150591800Y-105766500D01*
X142514594Y-105766500D01*
X142446473Y-105746498D01*
X142425499Y-105729595D01*
X140970405Y-104274500D01*
X140936379Y-104212188D01*
X140933500Y-104185405D01*
X140933500Y-101104669D01*
X142526001Y-101104669D01*
X142526371Y-101111490D01*
X142531895Y-101162352D01*
X142535521Y-101177604D01*
X142580676Y-101298054D01*
X142589214Y-101313649D01*
X142665715Y-101415724D01*
X142678276Y-101428285D01*
X142780351Y-101504786D01*
X142795946Y-101513324D01*
X142916394Y-101558478D01*
X142931649Y-101562105D01*
X142982514Y-101567631D01*
X142989328Y-101568000D01*
X144761885Y-101568000D01*
X144777124Y-101563525D01*
X144778329Y-101562135D01*
X144780000Y-101554452D01*
X144780000Y-101549884D01*
X145288000Y-101549884D01*
X145292475Y-101565123D01*
X145293865Y-101566328D01*
X145301548Y-101567999D01*
X147078669Y-101567999D01*
X147085490Y-101567629D01*
X147136352Y-101562105D01*
X147151604Y-101558479D01*
X147272054Y-101513324D01*
X147287649Y-101504786D01*
X147389724Y-101428285D01*
X147402285Y-101415724D01*
X147478786Y-101313649D01*
X147487324Y-101298054D01*
X147532478Y-101177606D01*
X147536105Y-101162351D01*
X147541631Y-101111486D01*
X147542000Y-101104672D01*
X147542000Y-99332115D01*
X147537525Y-99316876D01*
X147536135Y-99315671D01*
X147528452Y-99314000D01*
X145306115Y-99314000D01*
X145290876Y-99318475D01*
X145289671Y-99319865D01*
X145288000Y-99327548D01*
X145288000Y-101549884D01*
X144780000Y-101549884D01*
X144780000Y-99332115D01*
X144775525Y-99316876D01*
X144774135Y-99315671D01*
X144766452Y-99314000D01*
X142544116Y-99314000D01*
X142528877Y-99318475D01*
X142527672Y-99319865D01*
X142526001Y-99327548D01*
X142526001Y-101104669D01*
X140933500Y-101104669D01*
X140933500Y-99302524D01*
X140953502Y-99234403D01*
X140965858Y-99218221D01*
X141039040Y-99136944D01*
X141134527Y-98971556D01*
X141193542Y-98789928D01*
X141193757Y-98787885D01*
X142526000Y-98787885D01*
X142530475Y-98803124D01*
X142531865Y-98804329D01*
X142539548Y-98806000D01*
X144761885Y-98806000D01*
X144777124Y-98801525D01*
X144778329Y-98800135D01*
X144780000Y-98792452D01*
X144780000Y-98787885D01*
X145288000Y-98787885D01*
X145292475Y-98803124D01*
X145293865Y-98804329D01*
X145301548Y-98806000D01*
X147523884Y-98806000D01*
X147539123Y-98801525D01*
X147540328Y-98800135D01*
X147541999Y-98792452D01*
X147541999Y-97015331D01*
X147541629Y-97008510D01*
X147536105Y-96957648D01*
X147532479Y-96942396D01*
X147487324Y-96821946D01*
X147478786Y-96806351D01*
X147402285Y-96704276D01*
X147389724Y-96691715D01*
X147287649Y-96615214D01*
X147272054Y-96606676D01*
X147151606Y-96561522D01*
X147136351Y-96557895D01*
X147085486Y-96552369D01*
X147078672Y-96552000D01*
X145306115Y-96552000D01*
X145290876Y-96556475D01*
X145289671Y-96557865D01*
X145288000Y-96565548D01*
X145288000Y-98787885D01*
X144780000Y-98787885D01*
X144780000Y-96570116D01*
X144775525Y-96554877D01*
X144774135Y-96553672D01*
X144766452Y-96552001D01*
X142989331Y-96552001D01*
X142982510Y-96552371D01*
X142931648Y-96557895D01*
X142916396Y-96561521D01*
X142795946Y-96606676D01*
X142780351Y-96615214D01*
X142678276Y-96691715D01*
X142665715Y-96704276D01*
X142589214Y-96806351D01*
X142580676Y-96821946D01*
X142535522Y-96942394D01*
X142531895Y-96957649D01*
X142526369Y-97008514D01*
X142526000Y-97015328D01*
X142526000Y-98787885D01*
X141193757Y-98787885D01*
X141213504Y-98600000D01*
X141193542Y-98410072D01*
X141134527Y-98228444D01*
X141039040Y-98063056D01*
X140911253Y-97921134D01*
X140756752Y-97808882D01*
X140750724Y-97806198D01*
X140750722Y-97806197D01*
X140588319Y-97733891D01*
X140588318Y-97733891D01*
X140582288Y-97731206D01*
X140488887Y-97711353D01*
X140401944Y-97692872D01*
X140401939Y-97692872D01*
X140395487Y-97691500D01*
X140204513Y-97691500D01*
X140198061Y-97692872D01*
X140198056Y-97692872D01*
X140111113Y-97711353D01*
X140017712Y-97731206D01*
X140011682Y-97733891D01*
X140011681Y-97733891D01*
X139849278Y-97806197D01*
X139849276Y-97806198D01*
X139843248Y-97808882D01*
X139688747Y-97921134D01*
X139560960Y-98063056D01*
X139465473Y-98228444D01*
X139406458Y-98410072D01*
X139386496Y-98600000D01*
X135492500Y-98600000D01*
X135492500Y-96261866D01*
X135485745Y-96199684D01*
X135434615Y-96063295D01*
X135347261Y-95946739D01*
X135230705Y-95859385D01*
X135094316Y-95808255D01*
X135032134Y-95801500D01*
X132993500Y-95801500D01*
X132925379Y-95781498D01*
X132878886Y-95727842D01*
X132867500Y-95675500D01*
X132867500Y-95173431D01*
X132887502Y-95105310D01*
X132907920Y-95081287D01*
X132911253Y-95078866D01*
X133039040Y-94936944D01*
X133134527Y-94771556D01*
X133193542Y-94589928D01*
X133213504Y-94400000D01*
X133193542Y-94210072D01*
X133134527Y-94028444D01*
X133039040Y-93863056D01*
X132911253Y-93721134D01*
X132756752Y-93608882D01*
X132750724Y-93606198D01*
X132750722Y-93606197D01*
X132588319Y-93533891D01*
X132588318Y-93533891D01*
X132582288Y-93531206D01*
X132488887Y-93511353D01*
X132401944Y-93492872D01*
X132401939Y-93492872D01*
X132395487Y-93491500D01*
X132204513Y-93491500D01*
X132198061Y-93492872D01*
X132198056Y-93492872D01*
X132111113Y-93511353D01*
X132017712Y-93531206D01*
X132011682Y-93533891D01*
X132011681Y-93533891D01*
X131849278Y-93606197D01*
X131849276Y-93606198D01*
X131843248Y-93608882D01*
X131688747Y-93721134D01*
X131560960Y-93863056D01*
X131465473Y-94028444D01*
X131406458Y-94210072D01*
X131386496Y-94400000D01*
X131406458Y-94589928D01*
X131465473Y-94771556D01*
X131560960Y-94936944D01*
X131565379Y-94941852D01*
X131565380Y-94941853D01*
X131568137Y-94944915D01*
X131569173Y-94947074D01*
X131569261Y-94947195D01*
X131569239Y-94947211D01*
X131598854Y-95008923D01*
X131600500Y-95029225D01*
X131600500Y-95675500D01*
X131580498Y-95743621D01*
X131526842Y-95790114D01*
X131474500Y-95801500D01*
X129634500Y-95801500D01*
X129566379Y-95781498D01*
X129519886Y-95727842D01*
X129508500Y-95675500D01*
X129508500Y-83634500D01*
X129528502Y-83566379D01*
X129582158Y-83519886D01*
X129634500Y-83508500D01*
X160365500Y-83508500D01*
X160433621Y-83528502D01*
G37*
%TD.AperFunction*%
%TD*%
M02*
