%TF.GenerationSoftware,KiCad,Pcbnew,(6.0.7)*%
%TF.CreationDate,2023-01-27T14:46:33-05:00*%
%TF.ProjectId,Blinky5.0,426c696e-6b79-4352-9e30-2e6b69636164,rev?*%
%TF.SameCoordinates,Original*%
%TF.FileFunction,Copper,L1,Top*%
%TF.FilePolarity,Positive*%
%FSLAX46Y46*%
G04 Gerber Fmt 4.6, Leading zero omitted, Abs format (unit mm)*
G04 Created by KiCad (PCBNEW (6.0.7)) date 2023-01-27 14:46:33*
%MOMM*%
%LPD*%
G01*
G04 APERTURE LIST*
G04 Aperture macros list*
%AMRoundRect*
0 Rectangle with rounded corners*
0 $1 Rounding radius*
0 $2 $3 $4 $5 $6 $7 $8 $9 X,Y pos of 4 corners*
0 Add a 4 corners polygon primitive as box body*
4,1,4,$2,$3,$4,$5,$6,$7,$8,$9,$2,$3,0*
0 Add four circle primitives for the rounded corners*
1,1,$1+$1,$2,$3*
1,1,$1+$1,$4,$5*
1,1,$1+$1,$6,$7*
1,1,$1+$1,$8,$9*
0 Add four rect primitives between the rounded corners*
20,1,$1+$1,$2,$3,$4,$5,0*
20,1,$1+$1,$4,$5,$6,$7,0*
20,1,$1+$1,$6,$7,$8,$9,0*
20,1,$1+$1,$8,$9,$2,$3,0*%
G04 Aperture macros list end*
%TA.AperFunction,SMDPad,CuDef*%
%ADD10RoundRect,0.250000X-0.450000X0.350000X-0.450000X-0.350000X0.450000X-0.350000X0.450000X0.350000X0*%
%TD*%
%TA.AperFunction,SMDPad,CuDef*%
%ADD11RoundRect,0.250000X0.475000X-0.337500X0.475000X0.337500X-0.475000X0.337500X-0.475000X-0.337500X0*%
%TD*%
%TA.AperFunction,SMDPad,CuDef*%
%ADD12RoundRect,0.250000X0.450000X-0.325000X0.450000X0.325000X-0.450000X0.325000X-0.450000X-0.325000X0*%
%TD*%
%TA.AperFunction,SMDPad,CuDef*%
%ADD13RoundRect,0.150000X-0.825000X-0.150000X0.825000X-0.150000X0.825000X0.150000X-0.825000X0.150000X0*%
%TD*%
%TA.AperFunction,ViaPad*%
%ADD14C,0.800000*%
%TD*%
%TA.AperFunction,Conductor*%
%ADD15C,0.250000*%
%TD*%
G04 APERTURE END LIST*
D10*
%TO.P,R2,1*%
%TO.N,/DIS*%
X151000000Y-102000000D03*
%TO.P,R2,2*%
%TO.N,/THR*%
X151000000Y-104000000D03*
%TD*%
D11*
%TO.P,C1,1*%
%TO.N,/THR*%
X138000000Y-98037500D03*
%TO.P,C1,2*%
%TO.N,GND*%
X138000000Y-95962500D03*
%TD*%
D10*
%TO.P,R1,1*%
%TO.N,/VDD*%
X151000000Y-97000000D03*
%TO.P,R1,2*%
%TO.N,/DIS*%
X151000000Y-99000000D03*
%TD*%
D12*
%TO.P,D1,1,K*%
%TO.N,GND*%
X138000000Y-108000000D03*
%TO.P,D1,2,A*%
%TO.N,Net-(D1-Pad2)*%
X138000000Y-105950000D03*
%TD*%
D10*
%TO.P,R3,1*%
%TO.N,Net-(R3-Pad1)*%
X138000000Y-101000000D03*
%TO.P,R3,2*%
%TO.N,Net-(D1-Pad2)*%
X138000000Y-103000000D03*
%TD*%
D13*
%TO.P,U1,1,GND*%
%TO.N,GND*%
X142559000Y-97155000D03*
%TO.P,U1,2,~{TRIG*%
%TO.N,/THR*%
X142559000Y-98425000D03*
%TO.P,U1,3,OUT*%
%TO.N,Net-(R3-Pad1)*%
X142559000Y-99695000D03*
%TO.P,U1,4,~{RST*%
%TO.N,/VDD*%
X142559000Y-100965000D03*
%TO.P,U1,5,CTRL*%
%TO.N,unconnected-(U1-Pad5)*%
X147509000Y-100965000D03*
%TO.P,U1,6,THR*%
%TO.N,/THR*%
X147509000Y-99695000D03*
%TO.P,U1,7,DIS*%
%TO.N,/DIS*%
X147509000Y-98425000D03*
%TO.P,U1,8,VDD*%
%TO.N,/VDD*%
X147509000Y-97155000D03*
%TD*%
D14*
%TO.N,GND*%
X142500000Y-95400000D03*
X138000000Y-93000000D03*
X138000000Y-110000000D03*
%TO.N,/VDD*%
X132300000Y-94400000D03*
X157900000Y-94400000D03*
%TO.N,/THR*%
X140300000Y-98600000D03*
X151300000Y-106400000D03*
%TD*%
D15*
%TO.N,GND*%
X142559000Y-95459000D02*
X142500000Y-95400000D01*
X142559000Y-97155000D02*
X142559000Y-95459000D01*
X138000000Y-108000000D02*
X138000000Y-110000000D01*
X138000000Y-95962500D02*
X138000000Y-93000000D01*
%TO.N,Net-(D1-Pad2)*%
X138000000Y-103000000D02*
X138000000Y-105950000D01*
%TO.N,Net-(R3-Pad1)*%
X139305000Y-99695000D02*
X142334000Y-99695000D01*
X138000000Y-101000000D02*
X139305000Y-99695000D01*
%TO.N,/VDD*%
X150845000Y-97155000D02*
X151000000Y-97000000D01*
X147509000Y-97155000D02*
X150845000Y-97155000D01*
%TO.N,/THR*%
X151000000Y-104000000D02*
X151100000Y-104100000D01*
X139825000Y-98425000D02*
X142334000Y-98425000D01*
X150800000Y-104200000D02*
X151000000Y-104000000D01*
X140300000Y-98600000D02*
X140125000Y-98425000D01*
X151000000Y-104000000D02*
X151300000Y-104300000D01*
X139437500Y-98037500D02*
X139825000Y-98425000D01*
X147509000Y-99695000D02*
X148695000Y-99695000D01*
X140125000Y-98425000D02*
X139825000Y-98425000D01*
X149300000Y-100300000D02*
X149300000Y-104200000D01*
X151100000Y-104100000D02*
X151100000Y-104200000D01*
X149300000Y-104200000D02*
X150800000Y-104200000D01*
X148695000Y-99695000D02*
X149300000Y-100300000D01*
X151300000Y-104300000D02*
X151400000Y-104300000D01*
X151100000Y-104200000D02*
X151100000Y-106200000D01*
X138000000Y-98037500D02*
X139437500Y-98037500D01*
X151100000Y-106200000D02*
X151300000Y-106400000D01*
%TO.N,/DIS*%
X148725000Y-98425000D02*
X149300000Y-99000000D01*
X147509000Y-98425000D02*
X148725000Y-98425000D01*
X149300000Y-99000000D02*
X151000000Y-99000000D01*
X151000000Y-99000000D02*
X151000000Y-102000000D01*
%TD*%
%TA.AperFunction,Conductor*%
%TO.N,/VDD*%
G36*
X160433621Y-83528502D02*
G01*
X160480114Y-83582158D01*
X160491500Y-83634500D01*
X160491500Y-113365500D01*
X160471498Y-113433621D01*
X160417842Y-113480114D01*
X160365500Y-113491500D01*
X129634500Y-113491500D01*
X129566379Y-113471498D01*
X129519886Y-113417842D01*
X129508500Y-113365500D01*
X129508500Y-98425400D01*
X136766500Y-98425400D01*
X136766837Y-98428646D01*
X136766837Y-98428650D01*
X136773601Y-98493834D01*
X136777474Y-98531166D01*
X136833450Y-98698946D01*
X136926522Y-98849348D01*
X137051697Y-98974305D01*
X137057927Y-98978145D01*
X137057928Y-98978146D01*
X137195181Y-99062750D01*
X137202262Y-99067115D01*
X137282005Y-99093564D01*
X137363611Y-99120632D01*
X137363613Y-99120632D01*
X137370139Y-99122797D01*
X137376975Y-99123497D01*
X137376978Y-99123498D01*
X137420031Y-99127909D01*
X137474600Y-99133500D01*
X138525400Y-99133500D01*
X138528646Y-99133163D01*
X138528650Y-99133163D01*
X138624308Y-99123238D01*
X138624312Y-99123237D01*
X138631166Y-99122526D01*
X138637702Y-99120345D01*
X138637704Y-99120345D01*
X138650394Y-99116111D01*
X138721343Y-99113527D01*
X138782427Y-99149710D01*
X138814252Y-99213174D01*
X138806713Y-99283770D01*
X138779365Y-99324731D01*
X138249499Y-99854596D01*
X138187187Y-99888621D01*
X138160404Y-99891500D01*
X137499600Y-99891500D01*
X137496354Y-99891837D01*
X137496350Y-99891837D01*
X137400692Y-99901762D01*
X137400688Y-99901763D01*
X137393834Y-99902474D01*
X137387298Y-99904655D01*
X137387296Y-99904655D01*
X137359412Y-99913958D01*
X137226054Y-99958450D01*
X137075652Y-100051522D01*
X136950695Y-100176697D01*
X136946855Y-100182927D01*
X136946854Y-100182928D01*
X136882053Y-100288055D01*
X136857885Y-100327262D01*
X136843891Y-100369453D01*
X136809735Y-100472432D01*
X136802203Y-100495139D01*
X136791500Y-100599600D01*
X136791500Y-101400400D01*
X136802474Y-101506166D01*
X136804655Y-101512702D01*
X136804655Y-101512704D01*
X136832562Y-101596350D01*
X136858450Y-101673946D01*
X136951522Y-101824348D01*
X136956704Y-101829521D01*
X137038109Y-101910784D01*
X137072188Y-101973066D01*
X137067185Y-102043886D01*
X137038264Y-102088975D01*
X136962940Y-102164431D01*
X136950695Y-102176697D01*
X136857885Y-102327262D01*
X136802203Y-102495139D01*
X136791500Y-102599600D01*
X136791500Y-103400400D01*
X136802474Y-103506166D01*
X136858450Y-103673946D01*
X136951522Y-103824348D01*
X137076697Y-103949305D01*
X137227262Y-104042115D01*
X137280168Y-104059663D01*
X137338527Y-104100094D01*
X137365764Y-104165658D01*
X137366500Y-104179256D01*
X137366500Y-104795803D01*
X137346498Y-104863924D01*
X137292842Y-104910417D01*
X137280377Y-104915326D01*
X137232998Y-104931133D01*
X137232996Y-104931134D01*
X137226054Y-104933450D01*
X137219830Y-104937301D01*
X137219829Y-104937302D01*
X137195541Y-104952332D01*
X137075652Y-105026522D01*
X136950695Y-105151697D01*
X136857885Y-105302262D01*
X136802203Y-105470139D01*
X136791500Y-105574600D01*
X136791500Y-106325400D01*
X136802474Y-106431166D01*
X136858450Y-106598946D01*
X136951522Y-106749348D01*
X137076697Y-106874305D01*
X137080916Y-106876906D01*
X137121417Y-106934030D01*
X137124649Y-107004953D01*
X137089024Y-107066365D01*
X137081470Y-107072922D01*
X137075652Y-107076522D01*
X136950695Y-107201697D01*
X136946855Y-107207927D01*
X136946854Y-107207928D01*
X136909336Y-107268794D01*
X136857885Y-107352262D01*
X136802203Y-107520139D01*
X136791500Y-107624600D01*
X136791500Y-108375400D01*
X136802474Y-108481166D01*
X136858450Y-108648946D01*
X136951522Y-108799348D01*
X137076697Y-108924305D01*
X137227262Y-109017115D01*
X137280168Y-109034663D01*
X137338527Y-109075094D01*
X137365764Y-109140658D01*
X137366500Y-109154256D01*
X137366500Y-109297476D01*
X137346498Y-109365597D01*
X137334142Y-109381779D01*
X137260960Y-109463056D01*
X137165473Y-109628444D01*
X137106458Y-109810072D01*
X137086496Y-110000000D01*
X137106458Y-110189928D01*
X137165473Y-110371556D01*
X137260960Y-110536944D01*
X137388747Y-110678866D01*
X137543248Y-110791118D01*
X137549276Y-110793802D01*
X137549278Y-110793803D01*
X137711681Y-110866109D01*
X137717712Y-110868794D01*
X137811113Y-110888647D01*
X137898056Y-110907128D01*
X137898061Y-110907128D01*
X137904513Y-110908500D01*
X138095487Y-110908500D01*
X138101939Y-110907128D01*
X138101944Y-110907128D01*
X138188887Y-110888647D01*
X138282288Y-110868794D01*
X138288319Y-110866109D01*
X138450722Y-110793803D01*
X138450724Y-110793802D01*
X138456752Y-110791118D01*
X138611253Y-110678866D01*
X138739040Y-110536944D01*
X138834527Y-110371556D01*
X138893542Y-110189928D01*
X138913504Y-110000000D01*
X138893542Y-109810072D01*
X138834527Y-109628444D01*
X138739040Y-109463056D01*
X138665863Y-109381785D01*
X138635147Y-109317779D01*
X138633500Y-109297476D01*
X138633500Y-109154197D01*
X138653502Y-109086076D01*
X138707158Y-109039583D01*
X138719623Y-109034674D01*
X138767002Y-109018867D01*
X138767004Y-109018866D01*
X138773946Y-109016550D01*
X138924348Y-108923478D01*
X139049305Y-108798303D01*
X139142115Y-108647738D01*
X139197797Y-108479861D01*
X139208500Y-108375400D01*
X139208500Y-107624600D01*
X139197526Y-107518834D01*
X139141550Y-107351054D01*
X139048478Y-107200652D01*
X138923303Y-107075695D01*
X138919084Y-107073094D01*
X138878583Y-107015970D01*
X138875351Y-106945047D01*
X138910976Y-106883635D01*
X138918530Y-106877078D01*
X138924348Y-106873478D01*
X139049305Y-106748303D01*
X139142115Y-106597738D01*
X139197797Y-106429861D01*
X139208500Y-106325400D01*
X139208500Y-105574600D01*
X139197526Y-105468834D01*
X139141550Y-105301054D01*
X139048478Y-105150652D01*
X138923303Y-105025695D01*
X138917072Y-105021854D01*
X138778968Y-104936725D01*
X138778966Y-104936724D01*
X138772738Y-104932885D01*
X138719832Y-104915337D01*
X138661473Y-104874906D01*
X138634236Y-104809342D01*
X138633500Y-104795744D01*
X138633500Y-104179197D01*
X138653502Y-104111076D01*
X138707158Y-104064583D01*
X138719623Y-104059674D01*
X138767002Y-104043867D01*
X138767004Y-104043866D01*
X138773946Y-104041550D01*
X138924348Y-103948478D01*
X139049305Y-103823303D01*
X139142115Y-103672738D01*
X139197797Y-103504861D01*
X139208500Y-103400400D01*
X139208500Y-102599600D01*
X139208163Y-102596350D01*
X139198238Y-102500692D01*
X139198237Y-102500688D01*
X139197526Y-102493834D01*
X139141550Y-102326054D01*
X139048478Y-102175652D01*
X138961891Y-102089216D01*
X138927812Y-102026934D01*
X138932815Y-101956114D01*
X138961736Y-101911025D01*
X139044134Y-101828483D01*
X139049305Y-101823303D01*
X139080123Y-101773307D01*
X139138275Y-101678968D01*
X139138276Y-101678966D01*
X139142115Y-101672738D01*
X139190316Y-101527416D01*
X139195632Y-101511389D01*
X139195632Y-101511387D01*
X139197797Y-101504861D01*
X139208500Y-101400400D01*
X139208500Y-101230871D01*
X141082456Y-101230871D01*
X141123107Y-101370790D01*
X141129352Y-101385221D01*
X141205911Y-101514678D01*
X141215551Y-101527104D01*
X141321896Y-101633449D01*
X141334322Y-101643089D01*
X141463779Y-101719648D01*
X141478210Y-101725893D01*
X141624065Y-101768269D01*
X141636667Y-101770570D01*
X141665084Y-101772807D01*
X141670014Y-101773000D01*
X142286885Y-101773000D01*
X142302124Y-101768525D01*
X142303329Y-101767135D01*
X142305000Y-101759452D01*
X142305000Y-101754884D01*
X142813000Y-101754884D01*
X142817475Y-101770123D01*
X142818865Y-101771328D01*
X142826548Y-101772999D01*
X143447984Y-101772999D01*
X143452920Y-101772805D01*
X143481336Y-101770570D01*
X143493931Y-101768270D01*
X143639790Y-101725893D01*
X143654221Y-101719648D01*
X143783678Y-101643089D01*
X143796104Y-101633449D01*
X143902449Y-101527104D01*
X143912089Y-101514678D01*
X143988648Y-101385221D01*
X143994893Y-101370790D01*
X144033939Y-101236395D01*
X144033899Y-101222294D01*
X144026630Y-101219000D01*
X142831115Y-101219000D01*
X142815876Y-101223475D01*
X142814671Y-101224865D01*
X142813000Y-101232548D01*
X142813000Y-101754884D01*
X142305000Y-101754884D01*
X142305000Y-101237115D01*
X142300525Y-101221876D01*
X142299135Y-101220671D01*
X142291452Y-101219000D01*
X141097122Y-101219000D01*
X141083591Y-101222973D01*
X141082456Y-101230871D01*
X139208500Y-101230871D01*
X139208500Y-101181502D01*
X146025500Y-101181502D01*
X146028438Y-101218831D01*
X146033541Y-101236395D01*
X146072586Y-101370790D01*
X146074855Y-101378601D01*
X146078892Y-101385427D01*
X146155509Y-101514980D01*
X146155511Y-101514983D01*
X146159547Y-101521807D01*
X146277193Y-101639453D01*
X146284017Y-101643489D01*
X146284020Y-101643491D01*
X146391589Y-101707107D01*
X146420399Y-101724145D01*
X146428010Y-101726356D01*
X146428012Y-101726357D01*
X146480231Y-101741528D01*
X146580169Y-101770562D01*
X146586574Y-101771066D01*
X146586579Y-101771067D01*
X146615042Y-101773307D01*
X146615050Y-101773307D01*
X146617498Y-101773500D01*
X148400502Y-101773500D01*
X148402950Y-101773307D01*
X148402958Y-101773307D01*
X148431421Y-101771067D01*
X148431426Y-101771066D01*
X148437831Y-101770562D01*
X148505347Y-101750947D01*
X148576344Y-101751150D01*
X148635960Y-101789704D01*
X148665268Y-101854369D01*
X148666500Y-101871944D01*
X148666500Y-104128207D01*
X148664268Y-104151816D01*
X148662725Y-104159906D01*
X148666251Y-104215951D01*
X148666500Y-104223862D01*
X148666500Y-104239856D01*
X148668506Y-104255730D01*
X148669248Y-104263590D01*
X148672775Y-104319650D01*
X148675225Y-104327191D01*
X148675321Y-104327487D01*
X148680494Y-104350631D01*
X148680532Y-104350935D01*
X148680533Y-104350940D01*
X148681526Y-104358797D01*
X148684442Y-104366162D01*
X148684443Y-104366166D01*
X148702199Y-104411011D01*
X148704871Y-104418430D01*
X148722236Y-104471875D01*
X148726486Y-104478571D01*
X148726486Y-104478572D01*
X148726650Y-104478831D01*
X148737415Y-104499958D01*
X148737529Y-104500246D01*
X148737532Y-104500251D01*
X148740448Y-104507617D01*
X148745104Y-104514025D01*
X148745107Y-104514031D01*
X148773458Y-104553052D01*
X148777901Y-104559589D01*
X148808000Y-104607018D01*
X148813778Y-104612444D01*
X148813779Y-104612445D01*
X148814007Y-104612659D01*
X148829688Y-104630446D01*
X148834528Y-104637107D01*
X148840637Y-104642161D01*
X148840638Y-104642162D01*
X148877796Y-104672903D01*
X148883730Y-104678134D01*
X148918898Y-104711158D01*
X148918901Y-104711160D01*
X148924679Y-104716586D01*
X148931903Y-104720558D01*
X148951506Y-104733881D01*
X148951746Y-104734080D01*
X148951753Y-104734084D01*
X148957856Y-104739133D01*
X148997400Y-104757741D01*
X149008676Y-104763047D01*
X149015708Y-104766629D01*
X149064940Y-104793695D01*
X149072615Y-104795665D01*
X149072621Y-104795668D01*
X149072919Y-104795744D01*
X149095228Y-104803776D01*
X149095503Y-104803906D01*
X149095511Y-104803909D01*
X149102682Y-104807283D01*
X149157849Y-104817806D01*
X149165558Y-104819529D01*
X149199551Y-104828257D01*
X149212293Y-104831529D01*
X149212294Y-104831529D01*
X149219970Y-104833500D01*
X149228207Y-104833500D01*
X149251816Y-104835732D01*
X149252119Y-104835790D01*
X149252123Y-104835790D01*
X149259906Y-104837275D01*
X149315951Y-104833749D01*
X149323862Y-104833500D01*
X149908563Y-104833500D01*
X149976684Y-104853502D01*
X149997581Y-104870327D01*
X150013985Y-104886702D01*
X150076697Y-104949305D01*
X150082927Y-104953145D01*
X150082928Y-104953146D01*
X150209013Y-105030866D01*
X150227262Y-105042115D01*
X150380167Y-105092831D01*
X150438527Y-105133261D01*
X150465764Y-105198826D01*
X150466500Y-105212424D01*
X150466500Y-106005327D01*
X150460333Y-106044263D01*
X150406458Y-106210072D01*
X150405768Y-106216633D01*
X150405768Y-106216635D01*
X150393995Y-106328650D01*
X150386496Y-106400000D01*
X150406458Y-106589928D01*
X150465473Y-106771556D01*
X150560960Y-106936944D01*
X150565378Y-106941851D01*
X150565379Y-106941852D01*
X150632115Y-107015970D01*
X150688747Y-107078866D01*
X150843248Y-107191118D01*
X150849276Y-107193802D01*
X150849278Y-107193803D01*
X151011681Y-107266109D01*
X151017712Y-107268794D01*
X151111113Y-107288647D01*
X151198056Y-107307128D01*
X151198061Y-107307128D01*
X151204513Y-107308500D01*
X151395487Y-107308500D01*
X151401939Y-107307128D01*
X151401944Y-107307128D01*
X151488887Y-107288647D01*
X151582288Y-107268794D01*
X151588319Y-107266109D01*
X151750722Y-107193803D01*
X151750724Y-107193802D01*
X151756752Y-107191118D01*
X151911253Y-107078866D01*
X151967885Y-107015970D01*
X152034621Y-106941852D01*
X152034622Y-106941851D01*
X152039040Y-106936944D01*
X152134527Y-106771556D01*
X152193542Y-106589928D01*
X152213504Y-106400000D01*
X152206005Y-106328650D01*
X152194232Y-106216635D01*
X152194232Y-106216633D01*
X152193542Y-106210072D01*
X152134527Y-106028444D01*
X152039040Y-105863056D01*
X151911253Y-105721134D01*
X151847500Y-105674815D01*
X151785439Y-105629724D01*
X151742085Y-105573501D01*
X151733500Y-105527788D01*
X151733500Y-105136781D01*
X151753502Y-105068660D01*
X151793197Y-105029637D01*
X151918120Y-104952332D01*
X151924348Y-104948478D01*
X152049305Y-104823303D01*
X152061342Y-104803776D01*
X152138275Y-104678968D01*
X152138276Y-104678966D01*
X152142115Y-104672738D01*
X152181813Y-104553052D01*
X152195632Y-104511389D01*
X152195632Y-104511387D01*
X152197797Y-104504861D01*
X152208500Y-104400400D01*
X152208500Y-103599600D01*
X152199484Y-103512704D01*
X152198238Y-103500692D01*
X152198237Y-103500688D01*
X152197526Y-103493834D01*
X152141550Y-103326054D01*
X152048478Y-103175652D01*
X151961891Y-103089216D01*
X151927812Y-103026934D01*
X151932815Y-102956114D01*
X151961736Y-102911025D01*
X152044134Y-102828483D01*
X152049305Y-102823303D01*
X152142115Y-102672738D01*
X152197797Y-102504861D01*
X152208500Y-102400400D01*
X152208500Y-101599600D01*
X152208163Y-101596350D01*
X152198238Y-101500692D01*
X152198237Y-101500688D01*
X152197526Y-101493834D01*
X152161359Y-101385427D01*
X152143868Y-101333002D01*
X152141550Y-101326054D01*
X152048478Y-101175652D01*
X151923303Y-101050695D01*
X151772738Y-100957885D01*
X151719832Y-100940337D01*
X151661473Y-100899906D01*
X151634236Y-100834342D01*
X151633500Y-100820744D01*
X151633500Y-100179197D01*
X151653502Y-100111076D01*
X151707158Y-100064583D01*
X151719623Y-100059674D01*
X151767002Y-100043867D01*
X151767004Y-100043866D01*
X151773946Y-100041550D01*
X151924348Y-99948478D01*
X152049305Y-99823303D01*
X152142115Y-99672738D01*
X152197797Y-99504861D01*
X152208500Y-99400400D01*
X152208500Y-98599600D01*
X152202078Y-98537704D01*
X152198238Y-98500692D01*
X152198237Y-98500688D01*
X152197526Y-98493834D01*
X152141550Y-98326054D01*
X152048478Y-98175652D01*
X151961537Y-98088862D01*
X151927458Y-98026579D01*
X151932461Y-97955759D01*
X151961382Y-97910671D01*
X152043739Y-97828171D01*
X152052751Y-97816760D01*
X152137816Y-97678757D01*
X152143963Y-97665576D01*
X152195138Y-97511290D01*
X152198005Y-97497914D01*
X152207672Y-97403562D01*
X152208000Y-97397146D01*
X152208000Y-97272115D01*
X152203525Y-97256876D01*
X152202135Y-97255671D01*
X152194452Y-97254000D01*
X149810116Y-97254000D01*
X149794877Y-97258475D01*
X149793672Y-97259865D01*
X149792001Y-97267548D01*
X149792001Y-97397095D01*
X149792338Y-97403614D01*
X149802257Y-97499206D01*
X149805149Y-97512600D01*
X149856588Y-97666784D01*
X149862761Y-97679962D01*
X149948063Y-97817807D01*
X149957099Y-97829208D01*
X150038462Y-97910430D01*
X150072541Y-97972713D01*
X150067538Y-98043533D01*
X150038617Y-98088620D01*
X149955870Y-98171512D01*
X149955866Y-98171517D01*
X149950695Y-98176697D01*
X149946855Y-98182927D01*
X149946854Y-98182928D01*
X149870611Y-98306616D01*
X149817838Y-98354110D01*
X149763351Y-98366500D01*
X149614595Y-98366500D01*
X149546474Y-98346498D01*
X149525499Y-98329595D01*
X149378833Y-98182928D01*
X149228647Y-98032742D01*
X149221113Y-98024463D01*
X149217000Y-98017982D01*
X149167348Y-97971356D01*
X149164507Y-97968602D01*
X149144770Y-97948865D01*
X149141573Y-97946385D01*
X149132551Y-97938680D01*
X149106100Y-97913841D01*
X149100321Y-97908414D01*
X149093375Y-97904595D01*
X149093372Y-97904593D01*
X149082566Y-97898652D01*
X149066047Y-97887801D01*
X149065583Y-97887441D01*
X149050041Y-97875386D01*
X149042772Y-97872241D01*
X149042768Y-97872238D01*
X149009463Y-97857826D01*
X148998813Y-97852609D01*
X148960060Y-97831305D01*
X148955518Y-97830139D01*
X148900680Y-97787353D01*
X148877203Y-97720350D01*
X148894582Y-97649735D01*
X148938646Y-97575225D01*
X148944893Y-97560790D01*
X148983939Y-97426395D01*
X148983899Y-97412294D01*
X148976630Y-97409000D01*
X146047122Y-97409000D01*
X146033591Y-97412973D01*
X146032456Y-97420871D01*
X146073107Y-97560790D01*
X146079352Y-97575221D01*
X146155911Y-97704677D01*
X146161871Y-97712360D01*
X146187820Y-97778444D01*
X146173922Y-97848067D01*
X146163579Y-97864161D01*
X146159547Y-97868193D01*
X146074855Y-98011399D01*
X146072644Y-98019010D01*
X146072643Y-98019012D01*
X146063198Y-98051522D01*
X146028438Y-98171169D01*
X146027934Y-98177574D01*
X146027933Y-98177579D01*
X146025693Y-98206042D01*
X146025500Y-98208498D01*
X146025500Y-98641502D01*
X146028438Y-98678831D01*
X146074855Y-98838601D01*
X146159547Y-98981807D01*
X146162229Y-98984489D01*
X146187502Y-99048861D01*
X146173600Y-99118484D01*
X146163428Y-99134312D01*
X146159547Y-99138193D01*
X146074855Y-99281399D01*
X146028438Y-99441169D01*
X146025500Y-99478498D01*
X146025500Y-99911502D01*
X146028438Y-99948831D01*
X146030921Y-99957377D01*
X146072384Y-100100094D01*
X146074855Y-100108601D01*
X146159547Y-100251807D01*
X146162229Y-100254489D01*
X146187502Y-100318861D01*
X146173600Y-100388484D01*
X146163428Y-100404312D01*
X146159547Y-100408193D01*
X146074855Y-100551399D01*
X146072644Y-100559010D01*
X146072643Y-100559012D01*
X146060851Y-100599600D01*
X146028438Y-100711169D01*
X146027934Y-100717574D01*
X146027933Y-100717579D01*
X146025693Y-100746042D01*
X146025500Y-100748498D01*
X146025500Y-101181502D01*
X139208500Y-101181502D01*
X139208500Y-100739594D01*
X139228502Y-100671473D01*
X139245405Y-100650499D01*
X139530499Y-100365405D01*
X139592811Y-100331379D01*
X139619594Y-100328500D01*
X141036357Y-100328500D01*
X141104478Y-100348502D01*
X141150971Y-100402158D01*
X141161075Y-100472432D01*
X141144811Y-100518639D01*
X141129352Y-100544779D01*
X141123107Y-100559210D01*
X141084061Y-100693605D01*
X141084101Y-100707706D01*
X141091370Y-100711000D01*
X144020878Y-100711000D01*
X144034409Y-100707027D01*
X144035544Y-100699129D01*
X143994893Y-100559210D01*
X143988648Y-100544779D01*
X143912089Y-100415323D01*
X143906129Y-100407640D01*
X143880180Y-100341556D01*
X143894078Y-100271933D01*
X143904421Y-100255839D01*
X143908453Y-100251807D01*
X143993145Y-100108601D01*
X143995617Y-100100094D01*
X144037079Y-99957377D01*
X144039562Y-99948831D01*
X144042500Y-99911502D01*
X144042500Y-99478498D01*
X144039562Y-99441169D01*
X143993145Y-99281399D01*
X143908453Y-99138193D01*
X143905771Y-99135511D01*
X143880498Y-99071139D01*
X143894400Y-99001516D01*
X143904572Y-98985688D01*
X143908453Y-98981807D01*
X143993145Y-98838601D01*
X144039562Y-98678831D01*
X144042500Y-98641502D01*
X144042500Y-98208498D01*
X144042307Y-98206042D01*
X144040067Y-98177579D01*
X144040066Y-98177574D01*
X144039562Y-98171169D01*
X144004802Y-98051522D01*
X143995357Y-98019012D01*
X143995356Y-98019010D01*
X143993145Y-98011399D01*
X143908453Y-97868193D01*
X143905771Y-97865511D01*
X143880498Y-97801139D01*
X143894400Y-97731516D01*
X143904572Y-97715688D01*
X143908453Y-97711807D01*
X143993145Y-97568601D01*
X143995415Y-97560790D01*
X144021696Y-97470326D01*
X144039562Y-97408831D01*
X144040217Y-97400520D01*
X144042307Y-97373958D01*
X144042307Y-97373950D01*
X144042500Y-97371502D01*
X144042500Y-96938498D01*
X144039562Y-96901169D01*
X144034459Y-96883605D01*
X146034061Y-96883605D01*
X146034101Y-96897706D01*
X146041370Y-96901000D01*
X147236885Y-96901000D01*
X147252124Y-96896525D01*
X147253329Y-96895135D01*
X147255000Y-96887452D01*
X147255000Y-96882885D01*
X147763000Y-96882885D01*
X147767475Y-96898124D01*
X147768865Y-96899329D01*
X147776548Y-96901000D01*
X148970878Y-96901000D01*
X148984409Y-96897027D01*
X148985544Y-96889129D01*
X148944893Y-96749210D01*
X148938648Y-96734779D01*
X148934571Y-96727885D01*
X149792000Y-96727885D01*
X149796475Y-96743124D01*
X149797865Y-96744329D01*
X149805548Y-96746000D01*
X150727885Y-96746000D01*
X150743124Y-96741525D01*
X150744329Y-96740135D01*
X150746000Y-96732452D01*
X150746000Y-96727885D01*
X151254000Y-96727885D01*
X151258475Y-96743124D01*
X151259865Y-96744329D01*
X151267548Y-96746000D01*
X152189884Y-96746000D01*
X152205123Y-96741525D01*
X152206328Y-96740135D01*
X152207999Y-96732452D01*
X152207999Y-96602905D01*
X152207662Y-96596386D01*
X152197743Y-96500794D01*
X152194851Y-96487400D01*
X152143412Y-96333216D01*
X152137239Y-96320038D01*
X152051937Y-96182193D01*
X152042901Y-96170792D01*
X151928171Y-96056261D01*
X151916760Y-96047249D01*
X151778757Y-95962184D01*
X151765576Y-95956037D01*
X151611290Y-95904862D01*
X151597914Y-95901995D01*
X151503562Y-95892328D01*
X151497145Y-95892000D01*
X151272115Y-95892000D01*
X151256876Y-95896475D01*
X151255671Y-95897865D01*
X151254000Y-95905548D01*
X151254000Y-96727885D01*
X150746000Y-96727885D01*
X150746000Y-95910116D01*
X150741525Y-95894877D01*
X150740135Y-95893672D01*
X150732452Y-95892001D01*
X150502905Y-95892001D01*
X150496386Y-95892338D01*
X150400794Y-95902257D01*
X150387400Y-95905149D01*
X150233216Y-95956588D01*
X150220038Y-95962761D01*
X150082193Y-96048063D01*
X150070792Y-96057099D01*
X149956261Y-96171829D01*
X149947249Y-96183240D01*
X149862184Y-96321243D01*
X149856037Y-96334424D01*
X149804862Y-96488710D01*
X149801995Y-96502086D01*
X149792328Y-96596438D01*
X149792000Y-96602855D01*
X149792000Y-96727885D01*
X148934571Y-96727885D01*
X148862089Y-96605322D01*
X148852449Y-96592896D01*
X148746104Y-96486551D01*
X148733678Y-96476911D01*
X148604221Y-96400352D01*
X148589790Y-96394107D01*
X148443935Y-96351731D01*
X148431333Y-96349430D01*
X148402916Y-96347193D01*
X148397986Y-96347000D01*
X147781115Y-96347000D01*
X147765876Y-96351475D01*
X147764671Y-96352865D01*
X147763000Y-96360548D01*
X147763000Y-96882885D01*
X147255000Y-96882885D01*
X147255000Y-96365116D01*
X147250525Y-96349877D01*
X147249135Y-96348672D01*
X147241452Y-96347001D01*
X146620017Y-96347001D01*
X146615080Y-96347195D01*
X146586664Y-96349430D01*
X146574069Y-96351730D01*
X146428210Y-96394107D01*
X146413779Y-96400352D01*
X146284322Y-96476911D01*
X146271896Y-96486551D01*
X146165551Y-96592896D01*
X146155911Y-96605322D01*
X146079352Y-96734779D01*
X146073107Y-96749210D01*
X146034061Y-96883605D01*
X144034459Y-96883605D01*
X144003919Y-96778483D01*
X143995357Y-96749012D01*
X143995356Y-96749010D01*
X143993145Y-96741399D01*
X143927368Y-96630176D01*
X143912491Y-96605020D01*
X143912489Y-96605017D01*
X143908453Y-96598193D01*
X143790807Y-96480547D01*
X143783983Y-96476511D01*
X143783980Y-96476509D01*
X143654427Y-96399892D01*
X143654428Y-96399892D01*
X143647601Y-96395855D01*
X143639990Y-96393644D01*
X143639988Y-96393643D01*
X143587769Y-96378472D01*
X143487831Y-96349438D01*
X143481426Y-96348934D01*
X143481421Y-96348933D01*
X143452958Y-96346693D01*
X143452950Y-96346693D01*
X143450502Y-96346500D01*
X143318500Y-96346500D01*
X143250379Y-96326498D01*
X143203886Y-96272842D01*
X143192500Y-96220500D01*
X143192500Y-96036998D01*
X143212502Y-95968877D01*
X143224859Y-95952694D01*
X143239040Y-95936944D01*
X143334527Y-95771556D01*
X143393542Y-95589928D01*
X143413504Y-95400000D01*
X143403835Y-95308002D01*
X143394232Y-95216635D01*
X143394232Y-95216633D01*
X143393542Y-95210072D01*
X143334527Y-95028444D01*
X143239040Y-94863056D01*
X143111253Y-94721134D01*
X142956752Y-94608882D01*
X142950724Y-94606198D01*
X142950722Y-94606197D01*
X142788319Y-94533891D01*
X142788318Y-94533891D01*
X142782288Y-94531206D01*
X142688887Y-94511353D01*
X142601944Y-94492872D01*
X142601939Y-94492872D01*
X142595487Y-94491500D01*
X142404513Y-94491500D01*
X142398061Y-94492872D01*
X142398056Y-94492872D01*
X142311112Y-94511353D01*
X142217712Y-94531206D01*
X142211682Y-94533891D01*
X142211681Y-94533891D01*
X142049278Y-94606197D01*
X142049276Y-94606198D01*
X142043248Y-94608882D01*
X141888747Y-94721134D01*
X141760960Y-94863056D01*
X141665473Y-95028444D01*
X141606458Y-95210072D01*
X141605768Y-95216633D01*
X141605768Y-95216635D01*
X141596165Y-95308002D01*
X141586496Y-95400000D01*
X141606458Y-95589928D01*
X141665473Y-95771556D01*
X141760960Y-95936944D01*
X141765375Y-95941847D01*
X141765379Y-95941852D01*
X141888747Y-96078866D01*
X141887702Y-96079807D01*
X141921051Y-96133940D01*
X141925500Y-96167128D01*
X141925500Y-96220500D01*
X141905498Y-96288621D01*
X141851842Y-96335114D01*
X141799500Y-96346500D01*
X141667498Y-96346500D01*
X141665050Y-96346693D01*
X141665042Y-96346693D01*
X141636579Y-96348933D01*
X141636574Y-96348934D01*
X141630169Y-96349438D01*
X141530231Y-96378472D01*
X141478012Y-96393643D01*
X141478010Y-96393644D01*
X141470399Y-96395855D01*
X141463572Y-96399892D01*
X141463573Y-96399892D01*
X141334020Y-96476509D01*
X141334017Y-96476511D01*
X141327193Y-96480547D01*
X141209547Y-96598193D01*
X141205511Y-96605017D01*
X141205509Y-96605020D01*
X141190632Y-96630176D01*
X141124855Y-96741399D01*
X141122644Y-96749010D01*
X141122643Y-96749012D01*
X141114081Y-96778483D01*
X141078438Y-96901169D01*
X141075500Y-96938498D01*
X141075500Y-97371502D01*
X141075693Y-97373950D01*
X141075693Y-97373958D01*
X141077784Y-97400520D01*
X141078438Y-97408831D01*
X141096304Y-97470326D01*
X141122586Y-97560790D01*
X141124855Y-97568601D01*
X141144231Y-97601363D01*
X141161689Y-97670178D01*
X141139172Y-97737509D01*
X141083827Y-97781978D01*
X141035776Y-97791500D01*
X140744494Y-97791500D01*
X140693245Y-97780607D01*
X140588319Y-97733891D01*
X140588318Y-97733891D01*
X140582288Y-97731206D01*
X140457480Y-97704677D01*
X140401944Y-97692872D01*
X140401939Y-97692872D01*
X140395487Y-97691500D01*
X140204513Y-97691500D01*
X140198060Y-97692872D01*
X140198056Y-97692872D01*
X140149588Y-97703175D01*
X140092378Y-97715335D01*
X140021589Y-97709933D01*
X139977088Y-97681183D01*
X139941152Y-97645247D01*
X139933612Y-97636961D01*
X139929500Y-97630482D01*
X139879847Y-97583855D01*
X139877006Y-97581101D01*
X139857270Y-97561365D01*
X139854073Y-97558885D01*
X139845051Y-97551180D01*
X139818600Y-97526341D01*
X139812821Y-97520914D01*
X139805875Y-97517095D01*
X139805872Y-97517093D01*
X139795066Y-97511152D01*
X139778547Y-97500301D01*
X139777135Y-97499206D01*
X139762541Y-97487886D01*
X139755272Y-97484741D01*
X139755268Y-97484738D01*
X139721963Y-97470326D01*
X139711313Y-97465109D01*
X139672560Y-97443805D01*
X139652937Y-97438767D01*
X139634234Y-97432363D01*
X139622920Y-97427467D01*
X139622919Y-97427467D01*
X139615645Y-97424319D01*
X139607822Y-97423080D01*
X139607812Y-97423077D01*
X139571976Y-97417401D01*
X139560356Y-97414995D01*
X139525211Y-97405972D01*
X139525210Y-97405972D01*
X139517530Y-97404000D01*
X139497276Y-97404000D01*
X139477565Y-97402449D01*
X139477389Y-97402421D01*
X139457557Y-97399280D01*
X139449665Y-97400026D01*
X139413539Y-97403441D01*
X139401681Y-97404000D01*
X139254046Y-97404000D01*
X139185925Y-97383998D01*
X139146902Y-97344303D01*
X139077332Y-97231880D01*
X139073478Y-97225652D01*
X138948303Y-97100695D01*
X138944084Y-97098094D01*
X138903583Y-97040970D01*
X138900351Y-96970047D01*
X138935976Y-96908635D01*
X138943530Y-96902078D01*
X138949348Y-96898478D01*
X139074305Y-96773303D01*
X139167115Y-96622738D01*
X139211570Y-96488710D01*
X139220632Y-96461389D01*
X139220632Y-96461387D01*
X139222797Y-96454861D01*
X139233500Y-96350400D01*
X139233500Y-95574600D01*
X139222526Y-95468834D01*
X139201752Y-95406565D01*
X139168868Y-95308002D01*
X139166550Y-95301054D01*
X139073478Y-95150652D01*
X138948303Y-95025695D01*
X138942072Y-95021854D01*
X138803968Y-94936725D01*
X138803966Y-94936724D01*
X138797738Y-94932885D01*
X138740051Y-94913751D01*
X138719833Y-94907045D01*
X138661473Y-94866614D01*
X138634236Y-94801050D01*
X138633500Y-94787452D01*
X138633500Y-93702524D01*
X138653502Y-93634403D01*
X138665858Y-93618221D01*
X138739040Y-93536944D01*
X138834527Y-93371556D01*
X138893542Y-93189928D01*
X138913504Y-93000000D01*
X138893542Y-92810072D01*
X138834527Y-92628444D01*
X138739040Y-92463056D01*
X138611253Y-92321134D01*
X138456752Y-92208882D01*
X138450724Y-92206198D01*
X138450722Y-92206197D01*
X138288319Y-92133891D01*
X138288318Y-92133891D01*
X138282288Y-92131206D01*
X138188888Y-92111353D01*
X138101944Y-92092872D01*
X138101939Y-92092872D01*
X138095487Y-92091500D01*
X137904513Y-92091500D01*
X137898061Y-92092872D01*
X137898056Y-92092872D01*
X137811112Y-92111353D01*
X137717712Y-92131206D01*
X137711682Y-92133891D01*
X137711681Y-92133891D01*
X137549278Y-92206197D01*
X137549276Y-92206198D01*
X137543248Y-92208882D01*
X137388747Y-92321134D01*
X137260960Y-92463056D01*
X137165473Y-92628444D01*
X137106458Y-92810072D01*
X137086496Y-93000000D01*
X137106458Y-93189928D01*
X137165473Y-93371556D01*
X137260960Y-93536944D01*
X137334137Y-93618215D01*
X137364853Y-93682221D01*
X137366500Y-93702524D01*
X137366500Y-94787462D01*
X137346498Y-94855583D01*
X137292842Y-94902076D01*
X137280376Y-94906986D01*
X137219347Y-94927347D01*
X137201054Y-94933450D01*
X137050652Y-95026522D01*
X136925695Y-95151697D01*
X136832885Y-95302262D01*
X136777203Y-95470139D01*
X136766500Y-95574600D01*
X136766500Y-96350400D01*
X136766837Y-96353646D01*
X136766837Y-96353650D01*
X136770987Y-96393643D01*
X136777474Y-96456166D01*
X136779655Y-96462702D01*
X136779655Y-96462704D01*
X136792363Y-96500794D01*
X136833450Y-96623946D01*
X136926522Y-96774348D01*
X137051697Y-96899305D01*
X137055916Y-96901906D01*
X137096417Y-96959030D01*
X137099649Y-97029953D01*
X137064024Y-97091365D01*
X137056470Y-97097922D01*
X137050652Y-97101522D01*
X136925695Y-97226697D01*
X136832885Y-97377262D01*
X136821040Y-97412973D01*
X136787996Y-97512600D01*
X136777203Y-97545139D01*
X136776503Y-97551975D01*
X136776502Y-97551978D01*
X136775794Y-97558892D01*
X136766500Y-97649600D01*
X136766500Y-98425400D01*
X129508500Y-98425400D01*
X129508500Y-83634500D01*
X129528502Y-83566379D01*
X129582158Y-83519886D01*
X129634500Y-83508500D01*
X160365500Y-83508500D01*
X160433621Y-83528502D01*
G37*
%TD.AperFunction*%
%TD*%
M02*
