%TF.GenerationSoftware,KiCad,Pcbnew,(6.0.7)*%
%TF.CreationDate,2023-01-27T14:46:33-05:00*%
%TF.ProjectId,Blinky5.0,426c696e-6b79-4352-9e30-2e6b69636164,rev?*%
%TF.SameCoordinates,Original*%
%TF.FileFunction,Legend,Top*%
%TF.FilePolarity,Positive*%
%FSLAX46Y46*%
G04 Gerber Fmt 4.6, Leading zero omitted, Abs format (unit mm)*
G04 Created by KiCad (PCBNEW (6.0.7)) date 2023-01-27 14:46:33*
%MOMM*%
%LPD*%
G01*
G04 APERTURE LIST*
%ADD10C,0.150000*%
%ADD11C,0.120000*%
G04 APERTURE END LIST*
D10*
X143833333Y-85328571D02*
X143976190Y-85376190D01*
X144023809Y-85423809D01*
X144071428Y-85519047D01*
X144071428Y-85661904D01*
X144023809Y-85757142D01*
X143976190Y-85804761D01*
X143880952Y-85852380D01*
X143500000Y-85852380D01*
X143500000Y-84852380D01*
X143833333Y-84852380D01*
X143928571Y-84900000D01*
X143976190Y-84947619D01*
X144023809Y-85042857D01*
X144023809Y-85138095D01*
X143976190Y-85233333D01*
X143928571Y-85280952D01*
X143833333Y-85328571D01*
X143500000Y-85328571D01*
X144642857Y-85852380D02*
X144547619Y-85804761D01*
X144500000Y-85709523D01*
X144500000Y-84852380D01*
X145023809Y-85852380D02*
X145023809Y-85185714D01*
X145023809Y-84852380D02*
X144976190Y-84900000D01*
X145023809Y-84947619D01*
X145071428Y-84900000D01*
X145023809Y-84852380D01*
X145023809Y-84947619D01*
X145500000Y-85185714D02*
X145500000Y-85852380D01*
X145500000Y-85280952D02*
X145547619Y-85233333D01*
X145642857Y-85185714D01*
X145785714Y-85185714D01*
X145880952Y-85233333D01*
X145928571Y-85328571D01*
X145928571Y-85852380D01*
X146404761Y-85852380D02*
X146404761Y-84852380D01*
X146500000Y-85471428D02*
X146785714Y-85852380D01*
X146785714Y-85185714D02*
X146404761Y-85566666D01*
X147119047Y-85185714D02*
X147357142Y-85852380D01*
X147595238Y-85185714D02*
X147357142Y-85852380D01*
X147261904Y-86090476D01*
X147214285Y-86138095D01*
X147119047Y-86185714D01*
%TO.C,R2*%
X153102380Y-103166666D02*
X152626190Y-103500000D01*
X153102380Y-103738095D02*
X152102380Y-103738095D01*
X152102380Y-103357142D01*
X152150000Y-103261904D01*
X152197619Y-103214285D01*
X152292857Y-103166666D01*
X152435714Y-103166666D01*
X152530952Y-103214285D01*
X152578571Y-103261904D01*
X152626190Y-103357142D01*
X152626190Y-103738095D01*
X152197619Y-102785714D02*
X152150000Y-102738095D01*
X152102380Y-102642857D01*
X152102380Y-102404761D01*
X152150000Y-102309523D01*
X152197619Y-102261904D01*
X152292857Y-102214285D01*
X152388095Y-102214285D01*
X152530952Y-102261904D01*
X153102380Y-102833333D01*
X153102380Y-102214285D01*
%TO.C,BT1*%
X144248285Y-96448571D02*
X144391142Y-96496190D01*
X144438761Y-96543809D01*
X144486380Y-96639047D01*
X144486380Y-96781904D01*
X144438761Y-96877142D01*
X144391142Y-96924761D01*
X144295904Y-96972380D01*
X143914952Y-96972380D01*
X143914952Y-95972380D01*
X144248285Y-95972380D01*
X144343523Y-96020000D01*
X144391142Y-96067619D01*
X144438761Y-96162857D01*
X144438761Y-96258095D01*
X144391142Y-96353333D01*
X144343523Y-96400952D01*
X144248285Y-96448571D01*
X143914952Y-96448571D01*
X144772095Y-95972380D02*
X145343523Y-95972380D01*
X145057809Y-96972380D02*
X145057809Y-95972380D01*
X146200666Y-96972380D02*
X145629238Y-96972380D01*
X145914952Y-96972380D02*
X145914952Y-95972380D01*
X145819714Y-96115238D01*
X145724476Y-96210476D01*
X145629238Y-96258095D01*
%TO.C,C1*%
X136677142Y-97166666D02*
X136724761Y-97214285D01*
X136772380Y-97357142D01*
X136772380Y-97452380D01*
X136724761Y-97595238D01*
X136629523Y-97690476D01*
X136534285Y-97738095D01*
X136343809Y-97785714D01*
X136200952Y-97785714D01*
X136010476Y-97738095D01*
X135915238Y-97690476D01*
X135820000Y-97595238D01*
X135772380Y-97452380D01*
X135772380Y-97357142D01*
X135820000Y-97214285D01*
X135867619Y-97166666D01*
X136772380Y-96214285D02*
X136772380Y-96785714D01*
X136772380Y-96500000D02*
X135772380Y-96500000D01*
X135915238Y-96595238D01*
X136010476Y-96690476D01*
X136058095Y-96785714D01*
%TO.C,R1*%
X153102380Y-98166666D02*
X152626190Y-98500000D01*
X153102380Y-98738095D02*
X152102380Y-98738095D01*
X152102380Y-98357142D01*
X152150000Y-98261904D01*
X152197619Y-98214285D01*
X152292857Y-98166666D01*
X152435714Y-98166666D01*
X152530952Y-98214285D01*
X152578571Y-98261904D01*
X152626190Y-98357142D01*
X152626190Y-98738095D01*
X153102380Y-97214285D02*
X153102380Y-97785714D01*
X153102380Y-97500000D02*
X152102380Y-97500000D01*
X152245238Y-97595238D01*
X152340476Y-97690476D01*
X152388095Y-97785714D01*
%TO.C,D1*%
X136802380Y-107713095D02*
X135802380Y-107713095D01*
X135802380Y-107475000D01*
X135850000Y-107332142D01*
X135945238Y-107236904D01*
X136040476Y-107189285D01*
X136230952Y-107141666D01*
X136373809Y-107141666D01*
X136564285Y-107189285D01*
X136659523Y-107236904D01*
X136754761Y-107332142D01*
X136802380Y-107475000D01*
X136802380Y-107713095D01*
X136802380Y-106189285D02*
X136802380Y-106760714D01*
X136802380Y-106475000D02*
X135802380Y-106475000D01*
X135945238Y-106570238D01*
X136040476Y-106665476D01*
X136088095Y-106760714D01*
%TO.C,R3*%
X140102380Y-102166666D02*
X139626190Y-102500000D01*
X140102380Y-102738095D02*
X139102380Y-102738095D01*
X139102380Y-102357142D01*
X139150000Y-102261904D01*
X139197619Y-102214285D01*
X139292857Y-102166666D01*
X139435714Y-102166666D01*
X139530952Y-102214285D01*
X139578571Y-102261904D01*
X139626190Y-102357142D01*
X139626190Y-102738095D01*
X139102380Y-101833333D02*
X139102380Y-101214285D01*
X139483333Y-101547619D01*
X139483333Y-101404761D01*
X139530952Y-101309523D01*
X139578571Y-101261904D01*
X139673809Y-101214285D01*
X139911904Y-101214285D01*
X140007142Y-101261904D01*
X140054761Y-101309523D01*
X140102380Y-101404761D01*
X140102380Y-101690476D01*
X140054761Y-101785714D01*
X140007142Y-101833333D01*
%TO.C,U1*%
X144272095Y-95112380D02*
X144272095Y-95921904D01*
X144319714Y-96017142D01*
X144367333Y-96064761D01*
X144462571Y-96112380D01*
X144653047Y-96112380D01*
X144748285Y-96064761D01*
X144795904Y-96017142D01*
X144843523Y-95921904D01*
X144843523Y-95112380D01*
X145843523Y-96112380D02*
X145272095Y-96112380D01*
X145557809Y-96112380D02*
X145557809Y-95112380D01*
X145462571Y-95255238D01*
X145367333Y-95350476D01*
X145272095Y-95398095D01*
D11*
%TO.C,R2*%
X150265000Y-102772936D02*
X150265000Y-103227064D01*
X151735000Y-102772936D02*
X151735000Y-103227064D01*
%TO.C,BT1*%
X135034000Y-88560000D02*
X155034000Y-88460000D01*
X155034000Y-109560000D02*
X135034000Y-109560000D01*
X155034000Y-88460000D02*
X155034000Y-109560000D01*
X135034000Y-109560000D02*
X135034000Y-88560000D01*
X129434000Y-113260000D02*
X160634000Y-113260000D01*
X160634000Y-113260000D02*
X160634000Y-84660000D01*
X160634000Y-84660000D02*
X129434000Y-84660000D01*
X129434000Y-84660000D02*
X129434000Y-113260000D01*
%TO.C,C1*%
X137265000Y-97261252D02*
X137265000Y-96738748D01*
X138735000Y-97261252D02*
X138735000Y-96738748D01*
%TO.C,R1*%
X151735000Y-97772936D02*
X151735000Y-98227064D01*
X150265000Y-97772936D02*
X150265000Y-98227064D01*
%TO.C,D1*%
X137040000Y-108835000D02*
X138960000Y-108835000D01*
X138960000Y-108835000D02*
X138960000Y-105975000D01*
X137040000Y-105975000D02*
X137040000Y-108835000D01*
%TO.C,R3*%
X138735000Y-101772936D02*
X138735000Y-102227064D01*
X137265000Y-101772936D02*
X137265000Y-102227064D01*
%TO.C,U1*%
X145034000Y-96500000D02*
X146984000Y-96500000D01*
X145034000Y-101620000D02*
X146984000Y-101620000D01*
X145034000Y-96500000D02*
X141584000Y-96500000D01*
X145034000Y-101620000D02*
X143084000Y-101620000D01*
%TD*%
M02*
